<svg xmlns="http://www.w3.org/2000/svg" viewBox="0 0 32 32" fill="none">
  <rect width="32" height="32" rx="8" fill="url(#grad)"/>
  <defs>
    <linearGradient id="grad" x1="0" y1="0" x2="32" y2="32" gradientUnits="userSpaceOnUse">
      <stop offset="0%" stop-color="#7C3AED"/>
      <stop offset="100%" stop-color="#0D9488"/>
    </linearGradient>
  </defs>
  <path d="M16 6C10.477 6 6 10.477 6 16s4.477 10 10 10 10-4.477 10-10S21.523 6 16 6z" stroke="white" stroke-width="1.5" fill="none" opacity="0.4"/>
  <path d="M10 16c0-3.314 2.686-6 6-6s6 2.686 6 6-2.686 6-6 6" stroke="white" stroke-width="2" stroke-linecap="round" fill="none"/>
  <circle cx="16" cy="16" r="2.5" fill="white"/>
  <path d="M13 12l1.5 2M19 12l-1.5 2M13 20l1.5-2M19 20l-1.5-2" stroke="white" stroke-width="1.5" stroke-linecap="round" opacity="0.7"/>
</svg>
